<svg version="1.0" xmlns="http://www.w3.org/2000/svg" width="933.333" height="933.333" viewBox="0 0 700 700"><path d="M324.9 22.4c-.2.2-4.2.7-8.9 1-4.7.3-9.4.8-10.5 1-1.1.2-4.7.7-8 1.1-5.7.7-7.2.9-12.5 2-1.4.2-4.1.7-6 1-5.6.9-9 1.5-18 3.7-4.7 1.1-9.2 2.2-10 2.3-.8.2-7.6 2.2-15 4.5-31.9 9.7-75.6 29.9-81.6 37.7-5.7 7.4-3.6 18.3 4.4 23.4 2.7 1.7 6 2.9 7.9 2.9 2.1 0 8.7-2.8 18.5-7.8 8.4-4.3 19.4-9.5 24.3-11.6 5-2.1 9.9-4.2 11-4.7 9.8-4.4 37.3-12.7 54.5-16.3 11.5-2.4 14.1-2.9 23.5-4.2 2.8-.3 5.7-.8 6.6-.9.9-.2 5.2-.6 9.5-1s9.3-.8 10.9-1.1c3.8-.4 42.3-.4 49 0 12.1.9 22 1.8 22.5 2.1.3.2 3.4.6 7 1 3.5.3 6.7.8 7.1 1 .3.3 2.1.7 4 .9 24.6 3.3 61.9 16.1 95.9 32.9 15.1 7.4 19.4 9.1 23.2 9.1 12.7.2 19.5-15.5 11.6-26.7-4.5-6.3-67.6-34-89.4-39.2-1-.3-8-2-15.4-3.9-12.2-3-27.4-6-36.2-7.1-9.2-1.1-14.5-1.8-16.8-2.2-3.3-.5-62.5-1.5-63.1-.9z"/><path d="M328.9 102.4c-.2.2-4.7.6-9.9 1-5.2.3-10.6.8-12 1.1-1.4.3-4.5.7-7 1-2.5.2-5.6.7-7 1-1.4.2-4.1.7-6 1-1.9.3-4.2.8-5 1-.8.2-2.6.6-4 .8-12.5 2.2-38.9 10-55.2 16.3-48.4 18.8-93.3 50.2-127.1 88.9-10.1 11.6-10.6 12.2-16.8 20.5C66 252.3 65.4 253.5 66 261.4c.2 3.5 3.3 8.4 6.8 11 3.2 2.4 11.7 3.2 15.2 1.4 1.4-.8 6.8-7 12-14 12.5-16.5 17.2-22.1 30.5-35.4 24.4-24.4 46.1-40.4 75.7-55.7 23.3-12 58.4-24.1 81.8-28.1 1.9-.3 4.4-.8 5.6-1 1.2-.2 4.5-.7 7.5-1.1 3-.4 5.6-.8 6-1 .3-.2 4.3-.7 9-1 4.6-.4 10-.8 11.9-1 4.8-.6 39.4-.5 45 0 2.5.2 7.4.7 11 1 3.6.3 7.6.7 9 1 1.3.2 4.2.7 6.5 1 16.4 2.3 35.4 6.9 53 12.7 59.3 19.8 109.7 56.9 147.8 109 8.3 11.2 12.2 14.2 18.3 14 11.3-.4 18.5-11.8 14.4-22.8-.6-1.4-4.8-7.6-9.4-13.8-46.8-63-109.5-105.1-185.6-124.7-6.3-1.7-13-3.2-15-3.5-1.9-.3-4.2-.7-5-.9-3.3-1-18.9-3.4-25.5-4.1-3.8-.3-7.9-.8-9-1.1-2.3-.6-54-1.4-54.6-.9z"/><path d="M330.9 180.4c-.2.2-3.8.7-7.9 1-6.2.6-15.4 1.9-27.5 4.1-5.9 1-23.4 5.9-32.1 8.9-43.6 15.2-81.7 40.7-111.5 74.6-28.5 32.5-49.6 74.2-56.3 111.5-.3 1.6-.8 4.1-1.1 5.5-.3 1.4-.8 4.5-1.1 7-.3 2.5-.7 5.2-.9 6-1.2 4.2-2 20.7-2 39 0 30.8 1.9 49.7 7.5 76 1.2 5.2 2.3 10.6 2.6 12 1.2 6 8.8 31.2 11.5 38.1 3.2 8.4 4.6 10 10.3 12.4 10 4.2 21.1-3.7 20.8-15 0-2.2-1.9-9.4-4.1-16-2.2-6.6-4.7-14.7-5.6-18-.9-3.3-1.8-6.7-2-7.5-1.5-5.3-6.4-30.9-7-36.1-.4-3.5-.8-6.6-1-6.9-.8-1.3-1.8-22.3-1.9-37.5-.1-40.1 5.8-68.1 21-99 14.4-29.5 32.6-52.4 60.4-75.9 14.4-12.1 39.4-26.7 60.5-35.1 14.1-5.7 34.8-11.4 47-13.1 1.7-.2 4.1-.6 5.5-.9 14.8-3 55.5-2.5 72 1 1.4.3 4.1.8 6 1.1 1.9.3 7 1.4 11.3 2.5 65.2 16.4 119.4 59.5 149.1 118.5 10 20 17.4 42 20 59.9.3 2.2.8 5.1 1.1 6.5 2.2 11.3 3 33.2 1.5 42-3.8 22.9-20.2 42.2-42.4 50.1-8 2.8-12.6 3.4-23.6 3.3-29.1-.1-53.7-18.5-61.9-46-1.3-4.4-2.3-11.2-2.6-18-.8-17.3-3.6-28.6-10.6-42.4-13.6-27-38.9-45.8-69.6-51.6-11.6-2.2-30.5-1.5-41.8 1.6-26.1 7-48.7 24.8-61.5 48.5-3.7 7-8.8 21.6-9.8 28.3-1.4 9.7-.6 42.7 1.3 53.5.3 1.5.7 3.9 1 5.5 2.1 11.8 3.1 16 6.1 26.5 14.5 50.4 43.2 92.8 85.9 126.7 12.8 10.2 24.5 17.4 40.8 25.4 23.3 11.4 48.7 20.2 55.9 19.3 10.4-1.3 16-13.2 11.3-23.7-2.4-5.3-5.3-7.1-19-11.4-15.1-4.8-28.3-10.3-40.4-16.7-8.3-4.5-23.8-14.2-25.1-15.9-.3-.3-3.3-2.7-6.7-5.3-7.5-5.7-23.9-21.7-31.5-30.7-31.4-37.4-49.5-87-49.1-135.5.1-19.7 6.2-33.9 20.2-47.3 7-6.7 20.1-13.9 29.1-16 23.9-5.6 48.4 1.7 64.8 19.2 11.4 12.3 16.7 25.6 17.1 43.5.1 4.4.4 9.1.6 10.3.3 1.3 1 5 1.6 8.2 5 27.8 27 55.4 53.9 67.8 5.8 2.7 13.4 5.4 17.2 6.2 1.3.3 4.8 1 7.8 1.6 5.7 1.1 25.3 1.5 30.5.5 22.6-4.2 41-13.7 55.6-28.6 14.5-15 24.3-35 26.6-54.4 1.2-10.2.5-35.4-1.2-46.5-9.2-58.2-31.8-103.8-72-145.4-1.7-1.7-7.1-6.7-12-11.1-7.7-6.8-11.2-9.8-18-14.7-.5-.4-2.3-1.8-4-3.1-11.9-9.3-39.8-24.2-59-31.5-17.8-6.7-43-13.1-58-14.7-3.3-.4-7.1-.9-8.5-1.2-2.8-.5-44.6-1.4-45.1-.9z"/><path d="M335.5 261.1c-13 1.2-18.5 2.1-30 5-15.4 3.9-33.9 11.5-45.3 18.6-2.9 1.8-5.5 3.3-5.8 3.3-.5 0-2.4 1.3-13.4 9.4-13.5 10-27.7 24.9-37.9 39.7-16 23.1-26.2 48.8-30.1 75.9-4.1 27.8-.2 74.3 9 109.5 10.4 39.5 34.6 85.1 63.4 119 10.9 12.9 24.1 26.7 26.8 28.1 7.1 3.7 17.3.2 20.8-7.1 3.9-8 2.2-14.8-5.7-23.2-9.4-10-16.5-18.1-25.8-29.4-2.7-3.4-15.5-21.9-15.5-22.6 0-.3-.9-1.7-2-3.2-2.3-3.3-18-32.1-18-33.1 0-.3-.9-2.5-2-4.8-7.1-14.7-16.2-48.2-18.4-67.7-.3-2.2-.8-7.2-1.3-11-.4-3.9-.8-15.1-.8-25 0-16.3.4-23.1 2.1-33.5 1-6.2 8.1-26.4 11.9-34 3.6-7.4 13.8-23.5 16-25.5.6-.6 3.1-3.4 5.6-6.4 13.6-16.7 40-34.3 63-41.8 17.2-5.7 29.5-7.7 47.9-7.7 16 0 23.3.9 37.2 4.4 26.5 6.8 48 19.1 67.9 38.9 27.1 27.1 40.2 57.3 42.4 97.6.4 8.2 1.4 11.2 4.6 14.1 6.2 5.6 13.4 6.3 19.9 2 6.2-4.1 7.4-7.9 6.6-22-.8-15.4-1.1-17.8-4.1-30.6-9.4-39.6-31.7-74.5-63.4-99.1-4.2-3.3-8-6.3-8.6-6.7-2.1-1.7-16.2-10-21-12.4-28.6-14.5-64.9-21.6-96-18.7z"/><path d="M341.3 422.6c-8.3 4.1-10.1 11.3-7.9 32.4 6.3 59.8 43.4 113.5 96 139 31.2 15.1 67.3 19.8 107.1 13.9 14.7-2.2 20-6.8 20-17.6 0-6.9-1.7-10.1-7.6-14.1-3-2.2-4.2-2.3-10.7-1.8-4 .3-7.6.7-8 1-2.5 1.4-34.9 2.4-42.5 1.2-1.8-.3-5.4-.8-8.2-1.2-8.5-1.1-23.5-5.3-31.9-9-7.9-3.5-18.6-9.1-19.6-10.4-.3-.3-2.1-1.7-4-3-12.7-8.6-28.5-25.3-37.4-39.3-14.2-22.3-22.1-49.2-22.5-76.7-.2-11.7-12.5-19.5-22.8-14.4z"/></svg>