<?xml version="1.0" standalone="no"?>
<!DOCTYPE svg PUBLIC "-//W3C//DTD SVG 20010904//EN"
 "http://www.w3.org/TR/2001/REC-SVG-20010904/DTD/svg10.dtd">
<svg version="1.0" xmlns="http://www.w3.org/2000/svg"
 width="700.000000pt" height="700.000000pt" viewBox="0 0 700.000000 700.000000"
 preserveAspectRatio="xMidYMid meet">
<metadata>
Created by potrace 1.14, written by Peter Selinger 2001-2017
</metadata>
<g transform="translate(0.000000,700.000000) scale(0.100000,-0.100000)"
fill="#000000" stroke="none">
<path d="M3249 6776 c-2 -2 -42 -7 -89 -10 -47 -3 -94 -8 -105 -10 -11 -2 -47
-7 -80 -11 -57 -7 -72 -9 -125 -20 -14 -2 -41 -7 -60 -10 -56 -9 -90 -15 -180
-37 -47 -11 -92 -22 -100 -23 -8 -2 -76 -22 -150 -45 -319 -97 -756 -299 -816
-377 -57 -74 -36 -183 44 -234 27 -17 60 -29 79 -29 21 0 87 28 185 78 84 43
194 95 243 116 50 21 99 42 110 47 98 44 373 127 545 163 115 24 141 29 235
42 28 3 57 8 66 9 9 2 52 6 95 10 43 4 93 8 109 11 38 4 423 4 490 0 121 -9
220 -18 225 -21 3 -2 34 -6 70 -10 35 -3 67 -8 71 -10 3 -3 21 -7 40 -9 246
-33 619 -161 959 -329 151 -74 194 -91 232 -91 127 -2 195 155 116 267 -45 63
-676 340 -894 392 -10 3 -80 20 -154 39 -122 30 -274 60 -362 71 -92 11 -145
18 -168 22 -33 5 -625 15 -631 9z"/>
<path d="M3289 5976 c-2 -2 -47 -6 -99 -10 -52 -3 -106 -8 -120 -11 -14 -3
-45 -7 -70 -10 -25 -2 -56 -7 -70 -10 -14 -2 -41 -7 -60 -10 -19 -3 -42 -8
-50 -10 -8 -2 -26 -6 -40 -8 -125 -22 -389 -100 -552 -163 -484 -188 -933
-502 -1271 -889 -101 -116 -106 -122 -168 -205 -129 -173 -135 -185 -129 -264
2 -35 33 -84 68 -110 32 -24 117 -32 152 -14 14 8 68 70 120 140 125 165 172
221 305 354 244 244 461 404 757 557 233 120 584 241 818 281 19 3 44 8 56 10
12 2 45 7 75 11 30 4 56 8 60 10 3 2 43 7 90 10 46 4 100 8 119 10 48 6 394 5
450 0 25 -2 74 -7 110 -10 36 -3 76 -7 90 -10 13 -2 42 -7 65 -10 164 -23 354
-69 530 -127 593 -198 1097 -569 1478 -1090 83 -112 122 -142 183 -140 113 4
185 118 144 228 -6 14 -48 76 -94 138 -468 630 -1095 1051 -1856 1247 -63 17
-130 32 -150 35 -19 3 -42 7 -50 9 -33 10 -189 34 -255 41 -38 3 -79 8 -90 11
-23 6 -540 14 -546 9z"/>
<path d="M3309 5196 c-2 -2 -38 -7 -79 -10 -62 -6 -154 -19 -275 -41 -59 -10
-234 -59 -321 -89 -436 -152 -817 -407 -1115 -746 -285 -325 -496 -742 -563
-1115 -3 -16 -8 -41 -11 -55 -3 -14 -8 -45 -11 -70 -3 -25 -7 -52 -9 -60 -12
-42 -20 -207 -20 -390 0 -308 19 -497 75 -760 12 -52 23 -106 26 -120 12 -60
88 -312 115 -381 32 -84 46 -100 103 -124 100 -42 211 37 208 150 0 22 -19 94
-41 160 -22 66 -47 147 -56 180 -9 33 -18 67 -20 75 -15 53 -64 309 -70 361
-4 35 -8 66 -10 69 -8 13 -18 223 -19 375 -1 401 58 681 210 990 144 295 326
524 604 759 144 121 394 267 605 351 141 57 348 114 470 131 17 2 41 6 55 9
148 30 555 25 720 -10 14 -3 41 -8 60 -11 19 -3 70 -14 113 -25 652 -164 1194
-595 1491 -1185 100 -200 174 -420 200 -599 3 -22 8 -51 11 -65 22 -113 30
-332 15 -420 -38 -229 -202 -422 -424 -501 -80 -28 -126 -34 -236 -33 -291 1
-537 185 -619 460 -13 44 -23 112 -26 180 -8 173 -36 286 -106 424 -136 270
-389 458 -696 516 -116 22 -305 15 -418 -16 -261 -70 -487 -248 -615 -485 -37
-70 -88 -216 -98 -283 -14 -97 -6 -427 13 -535 3 -15 7 -39 10 -55 21 -118 31
-160 61 -265 145 -504 432 -928 859 -1267 128 -102 245 -174 408 -254 233
-114 487 -202 559 -193 104 13 160 132 113 237 -24 53 -53 71 -190 114 -151
48 -283 103 -404 167 -83 45 -238 142 -251 159 -3 3 -33 27 -67 53 -75 57
-239 217 -315 307 -314 374 -495 870 -491 1355 1 197 62 339 202 473 70 67
201 139 291 160 239 56 484 -17 648 -192 114 -123 167 -256 171 -435 1 -44 4
-91 6 -103 3 -13 10 -50 16 -82 50 -278 270 -554 539 -678 58 -27 134 -54 172
-62 13 -3 48 -10 78 -16 57 -11 253 -15 305 -5 226 42 410 137 556 286 145
150 243 350 266 544 12 102 5 354 -12 465 -92 582 -318 1038 -720 1454 -17 17
-71 67 -120 111 -77 68 -112 98 -180 147 -5 4 -23 18 -40 31 -119 93 -398 242
-590 315 -178 67 -430 131 -580 147 -33 4 -71 9 -85 12 -28 5 -446 14 -451 9z"/>
<path d="M3355 4389 c-130 -12 -185 -21 -300 -50 -154 -39 -339 -115 -453
-186 -29 -18 -55 -33 -58 -33 -5 0 -24 -13 -134 -94 -135 -100 -277 -249 -379
-397 -160 -231 -262 -488 -301 -759 -41 -278 -2 -743 90 -1095 104 -395 346
-851 634 -1190 109 -129 241 -267 268 -281 71 -37 173 -2 208 71 39 80 22 148
-57 232 -94 100 -165 181 -258 294 -27 34 -155 219 -155 226 0 3 -9 17 -20 32
-23 33 -180 321 -180 331 0 3 -9 25 -20 48 -71 147 -162 482 -184 677 -3 22
-8 72 -13 110 -4 39 -8 151 -8 250 0 163 4 231 21 335 10 62 81 264 119 340
36 74 138 235 160 255 6 6 31 34 56 64 136 167 400 343 630 418 172 57 295 77
479 77 160 0 233 -9 372 -44 265 -68 480 -191 679 -389 271 -271 402 -573 424
-976 4 -82 14 -112 46 -141 62 -56 134 -63 199 -20 62 41 74 79 66 220 -8 154
-11 178 -41 306 -94 396 -317 745 -634 991 -42 33 -80 63 -86 67 -21 17 -162
100 -210 124 -286 145 -649 216 -960 187z"/>
<path d="M3413 2774 c-83 -41 -101 -113 -79 -324 63 -598 434 -1135 960 -1390
312 -151 673 -198 1071 -139 147 22 200 68 200 176 0 69 -17 101 -76 141 -30
22 -42 23 -107 18 -40 -3 -76 -7 -80 -10 -25 -14 -349 -24 -425 -12 -18 3 -54
8 -82 12 -85 11 -235 53 -319 90 -79 35 -186 91 -196 104 -3 3 -21 17 -40 30
-127 86 -285 253 -374 393 -142 223 -221 492 -225 767 -2 117 -125 195 -228
144z"/>
</g>
</svg>
